<svg width="28.000000" height="22.000000" viewBox="0 0 28 22" fill="none" xmlns="http://www.w3.org/2000/svg" xmlns:xlink="http://www.w3.org/1999/xlink">
	<desc>
			Created with Pixso.
	</desc>
	<defs>
		<clipPath id="clip9_842">
			<rect id="Icon_youtube" rx="-0.500000" width="27.000000" height="21.000000" transform="translate(0.500000 0.500000)" fill="white" fill-opacity="0"/>
		</clipPath>
	</defs>
	<g clip-path="url(#clip9_842)">
		<path id="Vector" d="M14 0C9.94 0 6.36 0.42 4.17 0.75C2.36 1.02 0.9 2.41 0.57 4.26C0.29 5.83 0 8.12 0 11C0 13.87 0.29 16.16 0.57 17.73C0.9 19.58 2.36 20.97 4.17 21.24C6.37 21.57 9.96 22 14 22C18.03 22 21.63 21.57 23.82 21.24C25.63 20.97 27.09 19.58 27.42 17.73C27.7 16.16 28 13.86 28 11C28 8.13 27.71 5.83 27.42 4.26C27.09 2.41 25.63 1.02 23.82 0.75C21.63 0.42 18.05 0 14 0ZM14 2.2C17.91 2.2 21.4 2.6 23.52 2.92C23.96 2.98 24.37 3.18 24.69 3.5C25.01 3.81 25.22 4.22 25.3 4.67C25.56 6.12 25.84 8.27 25.84 11C25.84 13.71 25.56 15.87 25.3 17.32C25.22 17.77 25.01 18.18 24.69 18.49C24.37 18.81 23.96 19.01 23.52 19.07C21.39 19.39 17.88 19.79 14 19.79C10.11 19.79 6.59 19.39 4.47 19.07C4.03 19.01 3.62 18.81 3.3 18.49C2.98 18.18 2.77 17.77 2.69 17.32C2.43 15.87 2.15 13.72 2.15 11C2.15 8.27 2.43 6.12 2.69 4.67C2.77 4.22 2.98 3.81 3.3 3.5C3.62 3.18 4.03 2.98 4.47 2.92C6.58 2.6 10.08 2.2 14 2.2ZM10.76 4.7L10.76 17.29L12.38 16.36L19.92 11.96L21.53 11L19.92 10.03L12.38 5.63L10.76 4.7ZM12.92 8.49L17.19 11L12.92 13.5L12.92 8.49Z" fill="#FFFFFF" fill-opacity="1.000000" fill-rule="nonzero"/>
	</g>
</svg>
