<svg width="260.000000" height="260.000000" viewBox="0 0 260 260" fill="none" xmlns="http://www.w3.org/2000/svg" xmlns:xlink="http://www.w3.org/1999/xlink">
	<desc>
			Created with Pixso.
	</desc>
	<defs/>
	<circle id="Ellipse" cx="130.000000" cy="130.000000" r="130.000000" fill="#EBF0E4" fill-opacity="1.000000"/>
	<path id="Vector" d="M98.37 69.62L101.61 77.53C103.63 82.44 106.37 94.73 105.74 100.53C97.9 105.36 93.09 110.07 89.38 114C84.85 110.34 75.89 104.12 61 104.12L55.25 104.12L55.25 109.87C55.25 120.88 59.22 129.82 60.64 132.87C59.2 135.9 55.25 144.53 55.25 155.87L55.25 161.62L61 161.62C75.77 161.62 84.85 155.38 89.39 151.74C96.19 158.75 105.89 166.13 118.14 171.68C117.6 175.25 117.17 180.24 118.67 186.06L119.75 190.37L124.25 190.37C131.34 190.37 137.45 186.85 142.39 183.72C146.43 181.16 148.39 179.37 149.4 178.51C172.27 177.7 186.87 165.37 194.68 153.17C202.77 140.58 204.75 128.02 204.75 128.02L204.92 126.58L204.39 125.14C204.39 125.14 191.22 88.98 155.51 87.23C151.72 82.63 146.41 78.81 138.98 75.73C130.2 72.09 119.15 69.62 107 69.62L98.37 69.62ZM115.08 81.84C122.34 82.64 129.12 84.11 134.49 86.33C141.83 89.37 146.95 93.72 148.14 95.67L149.76 98.37L153 98.37C181.72 98.37 192.06 125.57 192.89 127.84C192.49 129.95 190.82 137.97 184.98 147.07C178.31 157.46 167.5 167.37 147.25 167.37L145.09 167.37L143.47 168.81C143.47 168.81 140.44 171.4 136.29 174.02C134.1 175.39 132.24 175.64 130 176.54C130.23 173.91 130 170.07 130 170.07L131.25 165.04L126.58 163.41C112.34 157.98 100.23 147.74 94.06 140.6L90.1 135.92L85.79 140.24C85.79 140.24 78.13 145.61 68.18 148.14C69.67 141.4 71.95 135.39 71.95 135.39L73.21 132.87L71.95 130.35C71.95 130.35 69.46 123.75 68 116.7C78.6 119.04 85.79 125.5 85.79 125.5L90.1 129.82L94.06 125.14C99.2 119.33 113.06 104.84 133.41 102.14L131.79 90.82C126.29 91.54 121.49 93.14 116.88 94.96C116.59 90.13 116.34 85.97 115.08 81.84ZM167.37 121.37C165.08 121.37 162.89 122.28 161.27 123.9C159.65 125.51 158.75 127.71 158.75 130C158.75 132.28 159.65 134.48 161.27 136.09C162.89 137.71 165.08 138.62 167.37 138.62C169.66 138.62 171.85 137.71 173.47 136.09C175.09 134.48 176 132.28 176 130C176 127.71 175.09 125.51 173.47 123.9C171.85 122.28 169.66 121.37 167.37 121.37Z" fill="#000000" fill-opacity="1.000000" fill-rule="nonzero"/>
</svg>
