<svg width="260.000000" height="260.000000" viewBox="0 0 260 260" fill="none" xmlns="http://www.w3.org/2000/svg" xmlns:xlink="http://www.w3.org/1999/xlink">
	<desc>
			Created with Pixso.
	</desc>
	<defs/>
	<circle id="Ellipse" cx="130.000000" cy="130.000000" r="130.000000" fill="#EBF0E4" fill-opacity="1.000000"/>
	<path id="Vector" d="M169.53 56.14L163.06 65.66C163.06 65.66 166.58 68.41 168.27 72.32C169.73 75.75 170.79 79.77 165.21 86.51L160.18 91.54C143.25 77.12 126.04 76.45 126.04 76.45L122.81 76.45L121.01 79.32C121.01 79.32 106.35 104.25 92.26 130C85.21 142.86 78.24 155.96 73.4 166.3C70.97 171.46 69.06 175.96 67.83 179.59C67.22 181.41 66.79 182.94 66.57 184.62C66.34 186.31 65.72 188.62 68.54 191.45C71.38 194.28 73.69 193.65 75.38 193.42C77.06 193.2 78.59 192.77 80.41 192.17C84.05 190.93 88.54 189.02 93.71 186.59C104.02 181.75 117.12 174.79 130 167.74C155.72 153.63 180.67 138.99 180.67 138.99L183.55 137.19L183.55 133.77C183.55 133.77 182.78 116.77 168.45 99.81L170.42 97.66C170.92 97.16 171.37 96.82 171.86 96.4L173.3 95.14C180.08 89.93 186.51 90.14 192.17 91.55C196.1 92.54 199.81 94.25 203.13 96.58L210.32 87.59C210.32 87.59 203.93 82.68 194.86 80.41C192.85 79.94 190.81 79.64 188.75 79.51L200.43 67.83L192.16 59.56L180.13 71.6C179.84 70.25 179.42 68.92 178.87 67.65C175.63 60.1 169.53 56.15 169.53 56.15L169.53 56.14ZM128.91 88.66C132.69 89.03 143.5 90.6 156.41 103.58C169.35 116.61 170.94 127.33 171.32 131.07C170.38 131.63 165.46 134.6 161.62 136.82C159.58 132.3 157.05 128.03 154.07 124.07L144.91 131.08C148.95 136.46 150.61 140.17 151.56 142.58C142.55 147.68 133.51 152.71 124.42 157.67C123.87 157.96 123.37 158.27 122.81 158.57C121.75 155.42 120.02 151.63 116.88 147.25L107.54 153.89C110.36 157.85 111.76 161.1 112.39 163.24C112.5 163.6 112.5 163.68 112.56 163.95C103.97 168.56 95.66 172.98 88.85 176.17C85.3 177.84 82.78 178.76 80.22 179.77C81.23 177.21 82.15 174.69 83.82 171.14C88.46 161.24 95.34 148.33 102.32 135.57C105.69 129.41 108.25 124.81 111.31 119.39C113.15 121.01 115.53 123.19 118.14 126.58L127.12 119.57C124.2 115.7 120.82 112.2 117.06 109.15C123.08 98.59 127.89 90.44 128.92 88.66L128.91 88.66Z" fill="#000000" fill-opacity="1.000000" fill-rule="nonzero"/>
</svg>
