<svg width="260.000000" height="260.000000" viewBox="0 0 260 260" fill="none" xmlns="http://www.w3.org/2000/svg" xmlns:xlink="http://www.w3.org/1999/xlink">
	<desc>
			Created with Pixso.
	</desc>
	<defs/>
	<circle id="Ellipse" cx="130.000000" cy="130.000000" r="130.000000" fill="#EBF0E4" fill-opacity="1.000000"/>
	<path id="Vector" d="M107 61C92.15 61 78.94 69.26 69.8 81.84C60.66 94.42 55.25 111.39 55.25 130C55.25 148.59 60.66 165.58 69.8 178.15C78.94 190.73 92.15 199 107 199C154.32 199 179.54 171.93 185.7 143.47C190.03 140.35 193.25 135.72 193.25 130C193.25 124.27 190.03 119.65 185.7 116.52C179.22 87.34 149.05 61 107 61ZM107 72.5C117.55 72.5 127.35 78.34 134.85 88.67C142.35 98.99 147.25 113.67 147.25 130C147.25 146.33 142.35 160.99 134.85 171.33C127.34 181.65 117.55 187.5 107 187.5C96.44 187.5 86.64 181.65 79.14 171.32C71.64 161 66.75 146.33 66.75 130C66.75 113.67 71.64 99 79.14 88.66C86.65 78.34 96.44 72.5 107 72.5ZM143.65 81.3C161.13 90.56 172.36 105.78 175.1 120.65L175.63 123.53L178.34 124.79C180.33 125.71 181.75 127.64 181.75 130C181.75 132.35 180.33 134.28 178.33 135.2L175.64 136.46L175.1 139.34C172.04 155.99 162 172.31 141.85 181.03C142.64 180.08 143.45 179.16 144.19 178.15C153.33 165.57 158.75 148.6 158.75 130C158.75 111.4 153.33 94.41 144.19 81.84C144.03 81.64 143.81 81.5 143.65 81.3ZM107 84C102.88 84 99.02 85.48 95.5 87.95L107.17 115.44L119.04 88.12C115.39 85.46 111.26 84 107 84ZM86.87 97.11C82.36 104.18 79.26 113.67 78.42 124.25L98.37 124.25L86.87 97.11ZM127.48 97.65L115.79 124.25L135.56 124.25C134.76 113.91 131.83 104.68 127.47 97.65L127.48 97.65ZM78.42 135.75C79.22 146.08 82.15 155.31 86.5 162.34L98.2 135.75L78.42 135.75ZM115.61 135.75L127.11 162.88C131.63 155.81 134.73 146.32 135.56 135.75L115.61 135.75ZM106.81 144.55L94.95 171.86C98.59 174.54 102.72 176 106.99 176C111.1 176 114.96 174.51 118.49 172.04L106.81 144.55Z" fill="#000000" fill-opacity="1.000000" fill-rule="nonzero"/>
</svg>
